<mxfile host="app.diagrams.net" modified="2023-12-19T12:02:16.160Z" agent="Mozilla/5.0 (Macintosh; Intel Mac OS X 10_15_7) AppleWebKit/537.36 (KHTML, like Gecko) Chrome/120.0.0.0 Safari/537.36" etag="Qo91YuPH3NHhmE-F-RUv" version="22.1.11" type="device">
  <diagram name="Page-1" id="BNRmQH-uPSsP1Tom48yA">
    <mxGraphModel dx="1220" dy="629" grid="1" gridSize="10" guides="1" tooltips="1" connect="1" arrows="1" fold="1" page="1" pageScale="1" pageWidth="850" pageHeight="1100" math="0" shadow="0">
      <root>
        <mxCell id="0" />
        <mxCell id="1" parent="0" />
        <mxCell id="Z0NAJYeGlHt2FRaliRzG-48" value="" style="group" vertex="1" connectable="0" parent="1">
          <mxGeometry x="130" y="250" width="420" height="390" as="geometry" />
        </mxCell>
        <mxCell id="Z0NAJYeGlHt2FRaliRzG-49" value="" style="shape=image;verticalLabelPosition=bottom;labelBackgroundColor=default;verticalAlign=top;aspect=fixed;imageAspect=0;image=data:image/png,iVBORw0KGgoAAAANSUhEUgAAAAgAAAAICAIAAABLbSncAAABhGlDQ1BJQ0MgcHJvZmlsZQAAKJF9kT1Iw0AcxV9TpaIVhRYRcchQneyiIo61CkWoEGqFVh1MLv2CJg1Jiouj4Fpw8GOx6uDirKuDqyAIfoC4ujgpukiJ/2sKLWI8OO7Hu3uPu3eAUC8zzeqKAZpum6lEXMxkV8XAK4IIoQ9DGJSZZcxJUhKe4+sePr7eRXmW97k/R7+asxjgE4ljzDBt4g3imU3b4LxPHGZFWSU+J54w6YLEj1xXXH7jXGiywDPDZjo1TxwmFgsdrHQwK5oa8TRxRNV0yhcyLquctzhr5Spr3ZO/MJjTV5a5TnMUCSxiCRJEKKiihDJsRGnVSbGQov24h3+k6ZfIpZCrBEaOBVSgQW76wf/gd7dWfmrSTQrGge4Xx/kYAwK7QKPmON/HjtM4AfzPwJXe9lfqwOwn6bW2FjkCBraBi+u2puwBlzvA8JMhm3JT8tMU8nng/Yy+KQuEboHeNbe31j5OH4A0dZW8AQ4OgfECZa97vLuns7d/z7T6+wFjXnKgrkNEvgAAAAlwSFlzAAAuIwAALiMBeKU/dgAAAAd0SU1FB+cMEwsaJMCyZQEAAAAZdEVYdENvbW1lbnQAQ3JlYXRlZCB3aXRoIEdJTVBXgQ4XAAAAwUlEQVQI1wXBzU4CMRAA4E6Z6c+wu+yyaOTi2TfgpM/swZcwHoUQQ0JQ4gENUWNMu+229fvg/mHtXMyl5FzYElvq59w0WqaU/1wc9ufT+694ev3+8W5/GkJCIYT3afwK7dunjSF2PC6rEEYJIHIpByT14V+WbU7Z9zUIkGypmtLVwmxur3eLwwZ3WqOUgMzUtYZw4uAZEqxu7oxGYxDbmZUSZnW+vFhtj4/9nJtaG01YTbWiiRuiEOJ4Vn3HSqEx+A/kqE3f+XlO7AAAAABJRU5ErkJggg==;" vertex="1" parent="Z0NAJYeGlHt2FRaliRzG-48">
          <mxGeometry x="45" y="33" width="324" height="324" as="geometry" />
        </mxCell>
        <mxCell id="Z0NAJYeGlHt2FRaliRzG-10" value="" style="endArrow=none;html=1;rounded=0;" edge="1" parent="Z0NAJYeGlHt2FRaliRzG-48">
          <mxGeometry width="50" height="50" relative="1" as="geometry">
            <mxPoint x="45" y="352" as="sourcePoint" />
            <mxPoint x="45" y="32" as="targetPoint" />
          </mxGeometry>
        </mxCell>
        <mxCell id="Z0NAJYeGlHt2FRaliRzG-11" value="" style="endArrow=none;html=1;rounded=0;" edge="1" parent="Z0NAJYeGlHt2FRaliRzG-48">
          <mxGeometry width="50" height="50" relative="1" as="geometry">
            <mxPoint x="45" y="352" as="sourcePoint" />
            <mxPoint x="365" y="352" as="targetPoint" />
          </mxGeometry>
        </mxCell>
        <mxCell id="Z0NAJYeGlHt2FRaliRzG-12" value="" style="endArrow=none;html=1;rounded=0;" edge="1" parent="Z0NAJYeGlHt2FRaliRzG-48">
          <mxGeometry width="50" height="50" relative="1" as="geometry">
            <mxPoint x="365" y="352" as="sourcePoint" />
            <mxPoint x="365" y="32" as="targetPoint" />
          </mxGeometry>
        </mxCell>
        <mxCell id="Z0NAJYeGlHt2FRaliRzG-13" value="" style="endArrow=none;html=1;rounded=0;" edge="1" parent="Z0NAJYeGlHt2FRaliRzG-48">
          <mxGeometry width="50" height="50" relative="1" as="geometry">
            <mxPoint x="45" y="32" as="sourcePoint" />
            <mxPoint x="365" y="32" as="targetPoint" />
          </mxGeometry>
        </mxCell>
        <mxCell id="Z0NAJYeGlHt2FRaliRzG-14" value="" style="endArrow=none;html=1;rounded=0;" edge="1" parent="Z0NAJYeGlHt2FRaliRzG-48">
          <mxGeometry width="50" height="50" relative="1" as="geometry">
            <mxPoint x="45" y="72" as="sourcePoint" />
            <mxPoint x="365" y="72" as="targetPoint" />
          </mxGeometry>
        </mxCell>
        <mxCell id="Z0NAJYeGlHt2FRaliRzG-15" value="" style="endArrow=none;html=1;rounded=0;" edge="1" parent="Z0NAJYeGlHt2FRaliRzG-48">
          <mxGeometry width="50" height="50" relative="1" as="geometry">
            <mxPoint x="45" y="112" as="sourcePoint" />
            <mxPoint x="365" y="112" as="targetPoint" />
          </mxGeometry>
        </mxCell>
        <mxCell id="Z0NAJYeGlHt2FRaliRzG-16" value="" style="endArrow=none;html=1;rounded=0;" edge="1" parent="Z0NAJYeGlHt2FRaliRzG-48">
          <mxGeometry width="50" height="50" relative="1" as="geometry">
            <mxPoint x="45" y="152" as="sourcePoint" />
            <mxPoint x="365" y="152" as="targetPoint" />
          </mxGeometry>
        </mxCell>
        <mxCell id="Z0NAJYeGlHt2FRaliRzG-17" value="" style="endArrow=none;html=1;rounded=0;" edge="1" parent="Z0NAJYeGlHt2FRaliRzG-48">
          <mxGeometry width="50" height="50" relative="1" as="geometry">
            <mxPoint x="45" y="192" as="sourcePoint" />
            <mxPoint x="365" y="192" as="targetPoint" />
          </mxGeometry>
        </mxCell>
        <mxCell id="Z0NAJYeGlHt2FRaliRzG-18" value="" style="endArrow=none;html=1;rounded=0;" edge="1" parent="Z0NAJYeGlHt2FRaliRzG-48">
          <mxGeometry width="50" height="50" relative="1" as="geometry">
            <mxPoint x="45" y="232" as="sourcePoint" />
            <mxPoint x="365" y="232" as="targetPoint" />
          </mxGeometry>
        </mxCell>
        <mxCell id="Z0NAJYeGlHt2FRaliRzG-19" value="" style="endArrow=none;html=1;rounded=0;" edge="1" parent="Z0NAJYeGlHt2FRaliRzG-48">
          <mxGeometry width="50" height="50" relative="1" as="geometry">
            <mxPoint x="45" y="272" as="sourcePoint" />
            <mxPoint x="365" y="272" as="targetPoint" />
          </mxGeometry>
        </mxCell>
        <mxCell id="Z0NAJYeGlHt2FRaliRzG-20" value="" style="endArrow=none;html=1;rounded=0;" edge="1" parent="Z0NAJYeGlHt2FRaliRzG-48">
          <mxGeometry width="50" height="50" relative="1" as="geometry">
            <mxPoint x="45" y="312" as="sourcePoint" />
            <mxPoint x="365" y="312" as="targetPoint" />
          </mxGeometry>
        </mxCell>
        <mxCell id="Z0NAJYeGlHt2FRaliRzG-21" value="" style="endArrow=none;html=1;rounded=0;" edge="1" parent="Z0NAJYeGlHt2FRaliRzG-48">
          <mxGeometry width="50" height="50" relative="1" as="geometry">
            <mxPoint x="85" y="352" as="sourcePoint" />
            <mxPoint x="85" y="32" as="targetPoint" />
          </mxGeometry>
        </mxCell>
        <mxCell id="Z0NAJYeGlHt2FRaliRzG-22" value="" style="endArrow=none;html=1;rounded=0;" edge="1" parent="Z0NAJYeGlHt2FRaliRzG-48">
          <mxGeometry width="50" height="50" relative="1" as="geometry">
            <mxPoint x="125" y="352" as="sourcePoint" />
            <mxPoint x="125" y="32" as="targetPoint" />
          </mxGeometry>
        </mxCell>
        <mxCell id="Z0NAJYeGlHt2FRaliRzG-23" value="" style="endArrow=none;html=1;rounded=0;" edge="1" parent="Z0NAJYeGlHt2FRaliRzG-48">
          <mxGeometry width="50" height="50" relative="1" as="geometry">
            <mxPoint x="165" y="352" as="sourcePoint" />
            <mxPoint x="165" y="32" as="targetPoint" />
          </mxGeometry>
        </mxCell>
        <mxCell id="Z0NAJYeGlHt2FRaliRzG-24" value="" style="endArrow=none;html=1;rounded=0;" edge="1" parent="Z0NAJYeGlHt2FRaliRzG-48" source="Z0NAJYeGlHt2FRaliRzG-49">
          <mxGeometry width="50" height="50" relative="1" as="geometry">
            <mxPoint x="205" y="352" as="sourcePoint" />
            <mxPoint x="205" y="32" as="targetPoint" />
          </mxGeometry>
        </mxCell>
        <mxCell id="Z0NAJYeGlHt2FRaliRzG-25" value="" style="endArrow=none;html=1;rounded=0;" edge="1" parent="Z0NAJYeGlHt2FRaliRzG-48">
          <mxGeometry width="50" height="50" relative="1" as="geometry">
            <mxPoint x="245" y="352" as="sourcePoint" />
            <mxPoint x="245" y="32" as="targetPoint" />
          </mxGeometry>
        </mxCell>
        <mxCell id="Z0NAJYeGlHt2FRaliRzG-26" value="" style="endArrow=none;html=1;rounded=0;" edge="1" parent="Z0NAJYeGlHt2FRaliRzG-48">
          <mxGeometry width="50" height="50" relative="1" as="geometry">
            <mxPoint x="285" y="352" as="sourcePoint" />
            <mxPoint x="285" y="32" as="targetPoint" />
          </mxGeometry>
        </mxCell>
        <mxCell id="Z0NAJYeGlHt2FRaliRzG-27" value="" style="endArrow=none;html=1;rounded=0;" edge="1" parent="Z0NAJYeGlHt2FRaliRzG-48">
          <mxGeometry width="50" height="50" relative="1" as="geometry">
            <mxPoint x="325" y="352" as="sourcePoint" />
            <mxPoint x="325" y="32" as="targetPoint" />
          </mxGeometry>
        </mxCell>
        <mxCell id="Z0NAJYeGlHt2FRaliRzG-28" value="0" style="text;html=1;align=center;verticalAlign=middle;resizable=0;points=[];autosize=1;strokeColor=none;fillColor=none;" vertex="1" parent="Z0NAJYeGlHt2FRaliRzG-48">
          <mxGeometry x="45" width="30" height="30" as="geometry" />
        </mxCell>
        <mxCell id="Z0NAJYeGlHt2FRaliRzG-29" value="1" style="text;html=1;align=center;verticalAlign=middle;resizable=0;points=[];autosize=1;strokeColor=none;fillColor=none;" vertex="1" parent="Z0NAJYeGlHt2FRaliRzG-48">
          <mxGeometry x="85" width="30" height="30" as="geometry" />
        </mxCell>
        <mxCell id="Z0NAJYeGlHt2FRaliRzG-30" value="2" style="text;html=1;align=center;verticalAlign=middle;resizable=0;points=[];autosize=1;strokeColor=none;fillColor=none;" vertex="1" parent="Z0NAJYeGlHt2FRaliRzG-48">
          <mxGeometry x="125" width="30" height="30" as="geometry" />
        </mxCell>
        <mxCell id="Z0NAJYeGlHt2FRaliRzG-31" value="3" style="text;html=1;align=center;verticalAlign=middle;resizable=0;points=[];autosize=1;strokeColor=none;fillColor=none;" vertex="1" parent="Z0NAJYeGlHt2FRaliRzG-48">
          <mxGeometry x="165" width="30" height="30" as="geometry" />
        </mxCell>
        <mxCell id="Z0NAJYeGlHt2FRaliRzG-32" value="4" style="text;html=1;align=center;verticalAlign=middle;resizable=0;points=[];autosize=1;strokeColor=none;fillColor=none;" vertex="1" parent="Z0NAJYeGlHt2FRaliRzG-48">
          <mxGeometry x="205" width="30" height="30" as="geometry" />
        </mxCell>
        <mxCell id="Z0NAJYeGlHt2FRaliRzG-33" value="5" style="text;html=1;align=center;verticalAlign=middle;resizable=0;points=[];autosize=1;strokeColor=none;fillColor=none;" vertex="1" parent="Z0NAJYeGlHt2FRaliRzG-48">
          <mxGeometry x="245" width="30" height="30" as="geometry" />
        </mxCell>
        <mxCell id="Z0NAJYeGlHt2FRaliRzG-34" value="6" style="text;html=1;align=center;verticalAlign=middle;resizable=0;points=[];autosize=1;strokeColor=none;fillColor=none;" vertex="1" parent="Z0NAJYeGlHt2FRaliRzG-48">
          <mxGeometry x="285" width="30" height="30" as="geometry" />
        </mxCell>
        <mxCell id="Z0NAJYeGlHt2FRaliRzG-35" value="7" style="text;html=1;align=center;verticalAlign=middle;resizable=0;points=[];autosize=1;strokeColor=none;fillColor=none;" vertex="1" parent="Z0NAJYeGlHt2FRaliRzG-48">
          <mxGeometry x="325" width="30" height="30" as="geometry" />
        </mxCell>
        <mxCell id="Z0NAJYeGlHt2FRaliRzG-36" value="0" style="text;html=1;align=center;verticalAlign=middle;resizable=0;points=[];autosize=1;strokeColor=none;fillColor=none;" vertex="1" parent="Z0NAJYeGlHt2FRaliRzG-48">
          <mxGeometry x="15" y="30" width="30" height="30" as="geometry" />
        </mxCell>
        <mxCell id="Z0NAJYeGlHt2FRaliRzG-37" value="1" style="text;html=1;align=center;verticalAlign=middle;resizable=0;points=[];autosize=1;strokeColor=none;fillColor=none;" vertex="1" parent="Z0NAJYeGlHt2FRaliRzG-48">
          <mxGeometry x="15" y="72" width="30" height="30" as="geometry" />
        </mxCell>
        <mxCell id="Z0NAJYeGlHt2FRaliRzG-38" value="2" style="text;html=1;align=center;verticalAlign=middle;resizable=0;points=[];autosize=1;strokeColor=none;fillColor=none;" vertex="1" parent="Z0NAJYeGlHt2FRaliRzG-48">
          <mxGeometry x="15" y="112" width="30" height="30" as="geometry" />
        </mxCell>
        <mxCell id="Z0NAJYeGlHt2FRaliRzG-39" value="3" style="text;html=1;align=center;verticalAlign=middle;resizable=0;points=[];autosize=1;strokeColor=none;fillColor=none;" vertex="1" parent="Z0NAJYeGlHt2FRaliRzG-48">
          <mxGeometry x="15" y="152" width="30" height="30" as="geometry" />
        </mxCell>
        <mxCell id="Z0NAJYeGlHt2FRaliRzG-40" value="4" style="text;html=1;align=center;verticalAlign=middle;resizable=0;points=[];autosize=1;strokeColor=none;fillColor=none;" vertex="1" parent="Z0NAJYeGlHt2FRaliRzG-48">
          <mxGeometry x="15" y="192" width="30" height="30" as="geometry" />
        </mxCell>
        <mxCell id="Z0NAJYeGlHt2FRaliRzG-41" value="5" style="text;html=1;align=center;verticalAlign=middle;resizable=0;points=[];autosize=1;strokeColor=none;fillColor=none;" vertex="1" parent="Z0NAJYeGlHt2FRaliRzG-48">
          <mxGeometry x="15" y="232" width="30" height="30" as="geometry" />
        </mxCell>
        <mxCell id="Z0NAJYeGlHt2FRaliRzG-42" value="6" style="text;html=1;align=center;verticalAlign=middle;resizable=0;points=[];autosize=1;strokeColor=none;fillColor=none;" vertex="1" parent="Z0NAJYeGlHt2FRaliRzG-48">
          <mxGeometry x="15" y="272" width="30" height="30" as="geometry" />
        </mxCell>
        <mxCell id="Z0NAJYeGlHt2FRaliRzG-43" value="7" style="text;html=1;align=center;verticalAlign=middle;resizable=0;points=[];autosize=1;strokeColor=none;fillColor=none;" vertex="1" parent="Z0NAJYeGlHt2FRaliRzG-48">
          <mxGeometry x="15" y="312" width="30" height="30" as="geometry" />
        </mxCell>
        <mxCell id="Z0NAJYeGlHt2FRaliRzG-44" value="" style="endArrow=classic;html=1;rounded=0;jumpSize=7;targetPerimeterSpacing=0;strokeWidth=3;" edge="1" parent="Z0NAJYeGlHt2FRaliRzG-48">
          <mxGeometry width="50" height="50" relative="1" as="geometry">
            <mxPoint x="45" y="32" as="sourcePoint" />
            <mxPoint x="45" y="382" as="targetPoint" />
          </mxGeometry>
        </mxCell>
        <mxCell id="Z0NAJYeGlHt2FRaliRzG-45" value="" style="endArrow=classic;html=1;rounded=0;strokeWidth=3;" edge="1" parent="Z0NAJYeGlHt2FRaliRzG-48">
          <mxGeometry width="50" height="50" relative="1" as="geometry">
            <mxPoint x="45" y="32" as="sourcePoint" />
            <mxPoint x="405" y="32" as="targetPoint" />
          </mxGeometry>
        </mxCell>
        <mxCell id="Z0NAJYeGlHt2FRaliRzG-46" value="&lt;b&gt;Y&lt;/b&gt;" style="text;html=1;align=center;verticalAlign=middle;resizable=0;points=[];autosize=1;strokeColor=none;fillColor=none;" vertex="1" parent="Z0NAJYeGlHt2FRaliRzG-48">
          <mxGeometry y="360" width="30" height="30" as="geometry" />
        </mxCell>
        <mxCell id="Z0NAJYeGlHt2FRaliRzG-47" value="&lt;b&gt;X&lt;/b&gt;" style="text;html=1;align=center;verticalAlign=middle;resizable=0;points=[];autosize=1;strokeColor=none;fillColor=none;" vertex="1" parent="Z0NAJYeGlHt2FRaliRzG-48">
          <mxGeometry x="390" width="30" height="30" as="geometry" />
        </mxCell>
        <mxCell id="Z0NAJYeGlHt2FRaliRzG-50" value="" style="endArrow=none;html=1;rounded=0;exitX=0.5;exitY=0;exitDx=0;exitDy=0;" edge="1" parent="Z0NAJYeGlHt2FRaliRzG-48" source="Z0NAJYeGlHt2FRaliRzG-49">
          <mxGeometry width="50" height="50" relative="1" as="geometry">
            <mxPoint x="320" y="600" as="sourcePoint" />
            <mxPoint x="205" y="352" as="targetPoint" />
          </mxGeometry>
        </mxCell>
        <mxCell id="Z0NAJYeGlHt2FRaliRzG-51" value="" style="rounded=0;whiteSpace=wrap;html=1;fillColor=#FF0000;strokeColor=#b85450;" vertex="1" parent="Z0NAJYeGlHt2FRaliRzG-48">
          <mxGeometry x="50" y="35" width="10" height="10" as="geometry" />
        </mxCell>
        <mxCell id="Z0NAJYeGlHt2FRaliRzG-53" value="" style="rounded=0;whiteSpace=wrap;html=1;fillColor=#0000FF;" vertex="1" parent="Z0NAJYeGlHt2FRaliRzG-48">
          <mxGeometry x="50" y="55" width="10" height="10" as="geometry" />
        </mxCell>
        <mxCell id="Z0NAJYeGlHt2FRaliRzG-54" value="69" style="text;html=1;align=center;verticalAlign=middle;resizable=0;points=[];autosize=1;strokeColor=none;fillColor=none;fontSize=5;fontColor=#FF0000;" vertex="1" parent="Z0NAJYeGlHt2FRaliRzG-48">
          <mxGeometry x="50" y="29" width="30" height="20" as="geometry" />
        </mxCell>
        <mxCell id="Z0NAJYeGlHt2FRaliRzG-56" value="83" style="text;html=1;align=center;verticalAlign=middle;resizable=0;points=[];autosize=1;strokeColor=none;fillColor=none;fontSize=5;fontColor=#0000FF;" vertex="1" parent="Z0NAJYeGlHt2FRaliRzG-48">
          <mxGeometry x="50" y="49" width="30" height="20" as="geometry" />
        </mxCell>
        <mxCell id="Z0NAJYeGlHt2FRaliRzG-55" value="70" style="text;html=1;align=center;verticalAlign=middle;resizable=0;points=[];autosize=1;strokeColor=none;fillColor=none;fontSize=5;fontColor=#00FF00;" vertex="1" parent="Z0NAJYeGlHt2FRaliRzG-48">
          <mxGeometry x="50" y="39" width="30" height="20" as="geometry" />
        </mxCell>
        <mxCell id="Z0NAJYeGlHt2FRaliRzG-59" value="65" style="text;html=1;align=center;verticalAlign=middle;resizable=0;points=[];autosize=1;strokeColor=none;fillColor=none;fontSize=5;fontColor=#FF0000;" vertex="1" parent="Z0NAJYeGlHt2FRaliRzG-48">
          <mxGeometry x="89" y="29" width="30" height="20" as="geometry" />
        </mxCell>
        <mxCell id="Z0NAJYeGlHt2FRaliRzG-60" value="81" style="text;html=1;align=center;verticalAlign=middle;resizable=0;points=[];autosize=1;strokeColor=none;fillColor=none;fontSize=5;fontColor=#0000FF;" vertex="1" parent="Z0NAJYeGlHt2FRaliRzG-48">
          <mxGeometry x="89" y="49" width="30" height="20" as="geometry" />
        </mxCell>
        <mxCell id="Z0NAJYeGlHt2FRaliRzG-61" value="67" style="text;html=1;align=center;verticalAlign=middle;resizable=0;points=[];autosize=1;strokeColor=none;fillColor=none;fontSize=5;fontColor=#00FF00;" vertex="1" parent="Z0NAJYeGlHt2FRaliRzG-48">
          <mxGeometry x="89" y="39" width="30" height="20" as="geometry" />
        </mxCell>
        <mxCell id="Z0NAJYeGlHt2FRaliRzG-62" value="" style="rounded=0;whiteSpace=wrap;html=1;fillColor=#00FF00;" vertex="1" parent="Z0NAJYeGlHt2FRaliRzG-48">
          <mxGeometry x="89" y="45" width="10" height="10" as="geometry" />
        </mxCell>
        <mxCell id="Z0NAJYeGlHt2FRaliRzG-64" value="" style="rounded=0;whiteSpace=wrap;html=1;fillColor=#FF0000;" vertex="1" parent="Z0NAJYeGlHt2FRaliRzG-48">
          <mxGeometry x="89" y="35" width="10" height="10" as="geometry" />
        </mxCell>
        <mxCell id="Z0NAJYeGlHt2FRaliRzG-63" value="" style="rounded=0;whiteSpace=wrap;html=1;fillColor=#0000FF;" vertex="1" parent="Z0NAJYeGlHt2FRaliRzG-48">
          <mxGeometry x="89" y="55" width="10" height="10" as="geometry" />
        </mxCell>
        <mxCell id="Z0NAJYeGlHt2FRaliRzG-67" value="65" style="text;html=1;align=center;verticalAlign=middle;resizable=0;points=[];autosize=1;strokeColor=none;fillColor=none;fontSize=5;fontColor=#FF0000;" vertex="1" parent="Z0NAJYeGlHt2FRaliRzG-48">
          <mxGeometry x="129" y="29" width="30" height="20" as="geometry" />
        </mxCell>
        <mxCell id="Z0NAJYeGlHt2FRaliRzG-68" value="81" style="text;html=1;align=center;verticalAlign=middle;resizable=0;points=[];autosize=1;strokeColor=none;fillColor=none;fontSize=5;fontColor=#0000FF;" vertex="1" parent="Z0NAJYeGlHt2FRaliRzG-48">
          <mxGeometry x="129" y="49" width="30" height="20" as="geometry" />
        </mxCell>
        <mxCell id="Z0NAJYeGlHt2FRaliRzG-69" value="67" style="text;html=1;align=center;verticalAlign=middle;resizable=0;points=[];autosize=1;strokeColor=none;fillColor=none;fontSize=5;fontColor=#00FF00;" vertex="1" parent="Z0NAJYeGlHt2FRaliRzG-48">
          <mxGeometry x="129" y="39" width="30" height="20" as="geometry" />
        </mxCell>
        <mxCell id="Z0NAJYeGlHt2FRaliRzG-70" value="" style="rounded=0;whiteSpace=wrap;html=1;fillColor=#00FF00;" vertex="1" parent="Z0NAJYeGlHt2FRaliRzG-48">
          <mxGeometry x="129" y="45" width="10" height="10" as="geometry" />
        </mxCell>
        <mxCell id="Z0NAJYeGlHt2FRaliRzG-71" value="" style="rounded=0;whiteSpace=wrap;html=1;fillColor=#FF0000;" vertex="1" parent="Z0NAJYeGlHt2FRaliRzG-48">
          <mxGeometry x="129" y="35" width="10" height="10" as="geometry" />
        </mxCell>
        <mxCell id="Z0NAJYeGlHt2FRaliRzG-72" value="" style="rounded=0;whiteSpace=wrap;html=1;fillColor=#0000FF;" vertex="1" parent="Z0NAJYeGlHt2FRaliRzG-48">
          <mxGeometry x="129" y="55" width="10" height="10" as="geometry" />
        </mxCell>
        <mxCell id="Z0NAJYeGlHt2FRaliRzG-73" value="64" style="text;html=1;align=center;verticalAlign=middle;resizable=0;points=[];autosize=1;strokeColor=none;fillColor=none;fontSize=5;fontColor=#FF0000;" vertex="1" parent="Z0NAJYeGlHt2FRaliRzG-48">
          <mxGeometry x="168" y="29" width="30" height="20" as="geometry" />
        </mxCell>
        <mxCell id="Z0NAJYeGlHt2FRaliRzG-74" value="80" style="text;html=1;align=center;verticalAlign=middle;resizable=0;points=[];autosize=1;strokeColor=none;fillColor=none;fontSize=5;fontColor=#0000FF;" vertex="1" parent="Z0NAJYeGlHt2FRaliRzG-48">
          <mxGeometry x="168" y="49" width="30" height="20" as="geometry" />
        </mxCell>
        <mxCell id="Z0NAJYeGlHt2FRaliRzG-75" value="66" style="text;html=1;align=center;verticalAlign=middle;resizable=0;points=[];autosize=1;strokeColor=none;fillColor=none;fontSize=5;fontColor=#00FF00;" vertex="1" parent="Z0NAJYeGlHt2FRaliRzG-48">
          <mxGeometry x="168" y="39" width="30" height="20" as="geometry" />
        </mxCell>
        <mxCell id="Z0NAJYeGlHt2FRaliRzG-76" value="" style="rounded=0;whiteSpace=wrap;html=1;fillColor=#00FF00;" vertex="1" parent="Z0NAJYeGlHt2FRaliRzG-48">
          <mxGeometry x="168" y="45" width="10" height="10" as="geometry" />
        </mxCell>
        <mxCell id="Z0NAJYeGlHt2FRaliRzG-77" value="" style="rounded=0;whiteSpace=wrap;html=1;fillColor=#FF0000;" vertex="1" parent="Z0NAJYeGlHt2FRaliRzG-48">
          <mxGeometry x="168" y="35" width="10" height="10" as="geometry" />
        </mxCell>
        <mxCell id="Z0NAJYeGlHt2FRaliRzG-78" value="" style="rounded=0;whiteSpace=wrap;html=1;fillColor=#0000FF;" vertex="1" parent="Z0NAJYeGlHt2FRaliRzG-48">
          <mxGeometry x="168" y="55" width="10" height="10" as="geometry" />
        </mxCell>
        <mxCell id="Z0NAJYeGlHt2FRaliRzG-79" value="68" style="text;html=1;align=center;verticalAlign=middle;resizable=0;points=[];autosize=1;strokeColor=none;fillColor=none;fontSize=5;fontColor=#FF0000;" vertex="1" parent="Z0NAJYeGlHt2FRaliRzG-48">
          <mxGeometry x="211" y="29" width="30" height="20" as="geometry" />
        </mxCell>
        <mxCell id="Z0NAJYeGlHt2FRaliRzG-80" value="82" style="text;html=1;align=center;verticalAlign=middle;resizable=0;points=[];autosize=1;strokeColor=none;fillColor=none;fontSize=5;fontColor=#0000FF;" vertex="1" parent="Z0NAJYeGlHt2FRaliRzG-48">
          <mxGeometry x="211" y="49" width="30" height="20" as="geometry" />
        </mxCell>
        <mxCell id="Z0NAJYeGlHt2FRaliRzG-81" value="69" style="text;html=1;align=center;verticalAlign=middle;resizable=0;points=[];autosize=1;strokeColor=none;fillColor=none;fontSize=5;fontColor=#00FF00;" vertex="1" parent="Z0NAJYeGlHt2FRaliRzG-48">
          <mxGeometry x="211" y="39" width="30" height="20" as="geometry" />
        </mxCell>
        <mxCell id="Z0NAJYeGlHt2FRaliRzG-82" value="" style="rounded=0;whiteSpace=wrap;html=1;fillColor=#00FF00;" vertex="1" parent="Z0NAJYeGlHt2FRaliRzG-48">
          <mxGeometry x="211" y="45" width="10" height="10" as="geometry" />
        </mxCell>
        <mxCell id="Z0NAJYeGlHt2FRaliRzG-83" value="" style="rounded=0;whiteSpace=wrap;html=1;fillColor=#FF0000;" vertex="1" parent="Z0NAJYeGlHt2FRaliRzG-48">
          <mxGeometry x="211" y="35" width="10" height="10" as="geometry" />
        </mxCell>
        <mxCell id="Z0NAJYeGlHt2FRaliRzG-84" value="" style="rounded=0;whiteSpace=wrap;html=1;fillColor=#0000FF;" vertex="1" parent="Z0NAJYeGlHt2FRaliRzG-48">
          <mxGeometry x="211" y="55" width="10" height="10" as="geometry" />
        </mxCell>
        <mxCell id="Z0NAJYeGlHt2FRaliRzG-85" value="72" style="text;html=1;align=center;verticalAlign=middle;resizable=0;points=[];autosize=1;strokeColor=none;fillColor=none;fontSize=5;fontColor=#FF0000;" vertex="1" parent="Z0NAJYeGlHt2FRaliRzG-48">
          <mxGeometry x="249" y="29" width="30" height="20" as="geometry" />
        </mxCell>
        <mxCell id="Z0NAJYeGlHt2FRaliRzG-86" value="84" style="text;html=1;align=center;verticalAlign=middle;resizable=0;points=[];autosize=1;strokeColor=none;fillColor=none;fontSize=5;fontColor=#0000FF;" vertex="1" parent="Z0NAJYeGlHt2FRaliRzG-48">
          <mxGeometry x="249" y="49" width="30" height="20" as="geometry" />
        </mxCell>
        <mxCell id="Z0NAJYeGlHt2FRaliRzG-87" value="73" style="text;html=1;align=center;verticalAlign=middle;resizable=0;points=[];autosize=1;strokeColor=none;fillColor=none;fontSize=5;fontColor=#00FF00;" vertex="1" parent="Z0NAJYeGlHt2FRaliRzG-48">
          <mxGeometry x="249" y="39" width="30" height="20" as="geometry" />
        </mxCell>
        <mxCell id="Z0NAJYeGlHt2FRaliRzG-88" value="" style="rounded=0;whiteSpace=wrap;html=1;fillColor=#00FF00;" vertex="1" parent="Z0NAJYeGlHt2FRaliRzG-48">
          <mxGeometry x="249" y="45" width="10" height="10" as="geometry" />
        </mxCell>
        <mxCell id="Z0NAJYeGlHt2FRaliRzG-89" value="" style="rounded=0;whiteSpace=wrap;html=1;fillColor=#FF0000;" vertex="1" parent="Z0NAJYeGlHt2FRaliRzG-48">
          <mxGeometry x="249" y="35" width="10" height="10" as="geometry" />
        </mxCell>
        <mxCell id="Z0NAJYeGlHt2FRaliRzG-90" value="" style="rounded=0;whiteSpace=wrap;html=1;fillColor=#0000FF;" vertex="1" parent="Z0NAJYeGlHt2FRaliRzG-48">
          <mxGeometry x="249" y="55" width="10" height="10" as="geometry" />
        </mxCell>
        <mxCell id="Z0NAJYeGlHt2FRaliRzG-91" value="79" style="text;html=1;align=center;verticalAlign=middle;resizable=0;points=[];autosize=1;strokeColor=none;fillColor=none;fontSize=5;fontColor=#FF0000;" vertex="1" parent="Z0NAJYeGlHt2FRaliRzG-48">
          <mxGeometry x="289" y="29" width="30" height="20" as="geometry" />
        </mxCell>
        <mxCell id="Z0NAJYeGlHt2FRaliRzG-92" value="88" style="text;html=1;align=center;verticalAlign=middle;resizable=0;points=[];autosize=1;strokeColor=none;fillColor=none;fontSize=5;fontColor=#0000FF;" vertex="1" parent="Z0NAJYeGlHt2FRaliRzG-48">
          <mxGeometry x="289" y="49" width="30" height="20" as="geometry" />
        </mxCell>
        <mxCell id="Z0NAJYeGlHt2FRaliRzG-93" value="80" style="text;html=1;align=center;verticalAlign=middle;resizable=0;points=[];autosize=1;strokeColor=none;fillColor=none;fontSize=5;fontColor=#00FF00;" vertex="1" parent="Z0NAJYeGlHt2FRaliRzG-48">
          <mxGeometry x="289" y="39" width="30" height="20" as="geometry" />
        </mxCell>
        <mxCell id="Z0NAJYeGlHt2FRaliRzG-94" value="" style="rounded=0;whiteSpace=wrap;html=1;fillColor=#00FF00;" vertex="1" parent="Z0NAJYeGlHt2FRaliRzG-48">
          <mxGeometry x="289" y="45" width="10" height="10" as="geometry" />
        </mxCell>
        <mxCell id="Z0NAJYeGlHt2FRaliRzG-95" value="" style="rounded=0;whiteSpace=wrap;html=1;fillColor=#FF0000;" vertex="1" parent="Z0NAJYeGlHt2FRaliRzG-48">
          <mxGeometry x="289" y="35" width="10" height="10" as="geometry" />
        </mxCell>
        <mxCell id="Z0NAJYeGlHt2FRaliRzG-96" value="" style="rounded=0;whiteSpace=wrap;html=1;fillColor=#0000FF;" vertex="1" parent="Z0NAJYeGlHt2FRaliRzG-48">
          <mxGeometry x="289" y="55" width="10" height="10" as="geometry" />
        </mxCell>
        <mxCell id="Z0NAJYeGlHt2FRaliRzG-97" value="85" style="text;html=1;align=center;verticalAlign=middle;resizable=0;points=[];autosize=1;strokeColor=none;fillColor=none;fontSize=5;fontColor=#FF0000;" vertex="1" parent="Z0NAJYeGlHt2FRaliRzG-48">
          <mxGeometry x="329" y="29" width="30" height="20" as="geometry" />
        </mxCell>
        <mxCell id="Z0NAJYeGlHt2FRaliRzG-98" value="91" style="text;html=1;align=center;verticalAlign=middle;resizable=0;points=[];autosize=1;strokeColor=none;fillColor=none;fontSize=5;fontColor=#0000FF;" vertex="1" parent="Z0NAJYeGlHt2FRaliRzG-48">
          <mxGeometry x="329" y="49" width="30" height="20" as="geometry" />
        </mxCell>
        <mxCell id="Z0NAJYeGlHt2FRaliRzG-99" value="85" style="text;html=1;align=center;verticalAlign=middle;resizable=0;points=[];autosize=1;strokeColor=none;fillColor=none;fontSize=5;fontColor=#00FF00;" vertex="1" parent="Z0NAJYeGlHt2FRaliRzG-48">
          <mxGeometry x="329" y="39" width="30" height="20" as="geometry" />
        </mxCell>
        <mxCell id="Z0NAJYeGlHt2FRaliRzG-100" value="" style="rounded=0;whiteSpace=wrap;html=1;fillColor=#00FF00;" vertex="1" parent="Z0NAJYeGlHt2FRaliRzG-48">
          <mxGeometry x="329" y="45" width="10" height="10" as="geometry" />
        </mxCell>
        <mxCell id="Z0NAJYeGlHt2FRaliRzG-101" value="" style="rounded=0;whiteSpace=wrap;html=1;fillColor=#FF0000;" vertex="1" parent="Z0NAJYeGlHt2FRaliRzG-48">
          <mxGeometry x="329" y="35" width="10" height="10" as="geometry" />
        </mxCell>
        <mxCell id="Z0NAJYeGlHt2FRaliRzG-102" value="" style="rounded=0;whiteSpace=wrap;html=1;fillColor=#0000FF;" vertex="1" parent="Z0NAJYeGlHt2FRaliRzG-48">
          <mxGeometry x="329" y="55" width="10" height="10" as="geometry" />
        </mxCell>
        <mxCell id="Z0NAJYeGlHt2FRaliRzG-108" value="68" style="text;html=1;align=center;verticalAlign=middle;resizable=0;points=[];autosize=1;strokeColor=none;fillColor=none;fontSize=5;fontColor=#FF0000;" vertex="1" parent="Z0NAJYeGlHt2FRaliRzG-48">
          <mxGeometry x="50" y="69" width="30" height="20" as="geometry" />
        </mxCell>
        <mxCell id="Z0NAJYeGlHt2FRaliRzG-109" value="82" style="text;html=1;align=center;verticalAlign=middle;resizable=0;points=[];autosize=1;strokeColor=none;fillColor=none;fontSize=5;fontColor=#0000FF;" vertex="1" parent="Z0NAJYeGlHt2FRaliRzG-48">
          <mxGeometry x="50" y="89" width="30" height="20" as="geometry" />
        </mxCell>
        <mxCell id="Z0NAJYeGlHt2FRaliRzG-110" value="69" style="text;html=1;align=center;verticalAlign=middle;resizable=0;points=[];autosize=1;strokeColor=none;fillColor=none;fontSize=5;fontColor=#00FF00;" vertex="1" parent="Z0NAJYeGlHt2FRaliRzG-48">
          <mxGeometry x="50" y="79" width="30" height="20" as="geometry" />
        </mxCell>
        <mxCell id="Z0NAJYeGlHt2FRaliRzG-111" value="" style="rounded=0;whiteSpace=wrap;html=1;fillColor=#00FF00;" vertex="1" parent="Z0NAJYeGlHt2FRaliRzG-48">
          <mxGeometry x="50" y="85" width="10" height="10" as="geometry" />
        </mxCell>
        <mxCell id="Z0NAJYeGlHt2FRaliRzG-112" value="" style="rounded=0;whiteSpace=wrap;html=1;fillColor=#FF0000;" vertex="1" parent="Z0NAJYeGlHt2FRaliRzG-48">
          <mxGeometry x="50" y="75" width="10" height="10" as="geometry" />
        </mxCell>
        <mxCell id="Z0NAJYeGlHt2FRaliRzG-113" value="" style="rounded=0;whiteSpace=wrap;html=1;fillColor=#0000FF;" vertex="1" parent="Z0NAJYeGlHt2FRaliRzG-48">
          <mxGeometry x="50" y="95" width="10" height="10" as="geometry" />
        </mxCell>
        <mxCell id="Z0NAJYeGlHt2FRaliRzG-114" value="61" style="text;html=1;align=center;verticalAlign=middle;resizable=0;points=[];autosize=1;strokeColor=none;fillColor=none;fontSize=5;fontColor=#FF0000;" vertex="1" parent="Z0NAJYeGlHt2FRaliRzG-48">
          <mxGeometry x="89" y="69" width="30" height="20" as="geometry" />
        </mxCell>
        <mxCell id="Z0NAJYeGlHt2FRaliRzG-115" value="79" style="text;html=1;align=center;verticalAlign=middle;resizable=0;points=[];autosize=1;strokeColor=none;fillColor=none;fontSize=5;fontColor=#0000FF;" vertex="1" parent="Z0NAJYeGlHt2FRaliRzG-48">
          <mxGeometry x="89" y="89" width="30" height="20" as="geometry" />
        </mxCell>
        <mxCell id="Z0NAJYeGlHt2FRaliRzG-116" value="63" style="text;html=1;align=center;verticalAlign=middle;resizable=0;points=[];autosize=1;strokeColor=none;fillColor=none;fontSize=5;fontColor=#00FF00;" vertex="1" parent="Z0NAJYeGlHt2FRaliRzG-48">
          <mxGeometry x="89" y="79" width="30" height="20" as="geometry" />
        </mxCell>
        <mxCell id="Z0NAJYeGlHt2FRaliRzG-117" value="" style="rounded=0;whiteSpace=wrap;html=1;fillColor=#00FF00;" vertex="1" parent="Z0NAJYeGlHt2FRaliRzG-48">
          <mxGeometry x="89" y="85" width="10" height="10" as="geometry" />
        </mxCell>
        <mxCell id="Z0NAJYeGlHt2FRaliRzG-118" value="" style="rounded=0;whiteSpace=wrap;html=1;fillColor=#FF0000;" vertex="1" parent="Z0NAJYeGlHt2FRaliRzG-48">
          <mxGeometry x="89" y="75" width="10" height="10" as="geometry" />
        </mxCell>
        <mxCell id="Z0NAJYeGlHt2FRaliRzG-119" value="" style="rounded=0;whiteSpace=wrap;html=1;fillColor=#0000FF;" vertex="1" parent="Z0NAJYeGlHt2FRaliRzG-48">
          <mxGeometry x="89" y="95" width="10" height="10" as="geometry" />
        </mxCell>
        <mxCell id="Z0NAJYeGlHt2FRaliRzG-120" value="62" style="text;html=1;align=center;verticalAlign=middle;resizable=0;points=[];autosize=1;strokeColor=none;fillColor=none;fontSize=5;fontColor=#FF0000;" vertex="1" parent="Z0NAJYeGlHt2FRaliRzG-48">
          <mxGeometry x="129" y="69" width="30" height="20" as="geometry" />
        </mxCell>
        <mxCell id="Z0NAJYeGlHt2FRaliRzG-121" value="73" style="text;html=1;align=center;verticalAlign=middle;resizable=0;points=[];autosize=1;strokeColor=none;fillColor=none;fontSize=5;fontColor=#0000FF;" vertex="1" parent="Z0NAJYeGlHt2FRaliRzG-48">
          <mxGeometry x="129" y="89" width="30" height="20" as="geometry" />
        </mxCell>
        <mxCell id="Z0NAJYeGlHt2FRaliRzG-122" value="53" style="text;html=1;align=center;verticalAlign=middle;resizable=0;points=[];autosize=1;strokeColor=none;fillColor=none;fontSize=5;fontColor=#00FF00;" vertex="1" parent="Z0NAJYeGlHt2FRaliRzG-48">
          <mxGeometry x="129" y="79" width="30" height="20" as="geometry" />
        </mxCell>
        <mxCell id="Z0NAJYeGlHt2FRaliRzG-123" value="" style="rounded=0;whiteSpace=wrap;html=1;fillColor=#00FF00;" vertex="1" parent="Z0NAJYeGlHt2FRaliRzG-48">
          <mxGeometry x="129" y="85" width="10" height="10" as="geometry" />
        </mxCell>
        <mxCell id="Z0NAJYeGlHt2FRaliRzG-124" value="" style="rounded=0;whiteSpace=wrap;html=1;fillColor=#FF0000;" vertex="1" parent="Z0NAJYeGlHt2FRaliRzG-48">
          <mxGeometry x="129" y="75" width="10" height="10" as="geometry" />
        </mxCell>
        <mxCell id="Z0NAJYeGlHt2FRaliRzG-125" value="" style="rounded=0;whiteSpace=wrap;html=1;fillColor=#0000FF;" vertex="1" parent="Z0NAJYeGlHt2FRaliRzG-48">
          <mxGeometry x="129" y="95" width="10" height="10" as="geometry" />
        </mxCell>
        <mxCell id="Z0NAJYeGlHt2FRaliRzG-126" value="55" style="text;html=1;align=center;verticalAlign=middle;resizable=0;points=[];autosize=1;strokeColor=none;fillColor=none;fontSize=5;fontColor=#FF0000;" vertex="1" parent="Z0NAJYeGlHt2FRaliRzG-48">
          <mxGeometry x="168" y="69" width="30" height="20" as="geometry" />
        </mxCell>
        <mxCell id="Z0NAJYeGlHt2FRaliRzG-127" value="75" style="text;html=1;align=center;verticalAlign=middle;resizable=0;points=[];autosize=1;strokeColor=none;fillColor=none;fontSize=5;fontColor=#0000FF;" vertex="1" parent="Z0NAJYeGlHt2FRaliRzG-48">
          <mxGeometry x="168" y="89" width="30" height="20" as="geometry" />
        </mxCell>
        <mxCell id="Z0NAJYeGlHt2FRaliRzG-128" value="55" style="text;html=1;align=center;verticalAlign=middle;resizable=0;points=[];autosize=1;strokeColor=none;fillColor=none;fontSize=5;fontColor=#00FF00;" vertex="1" parent="Z0NAJYeGlHt2FRaliRzG-48">
          <mxGeometry x="168" y="79" width="30" height="20" as="geometry" />
        </mxCell>
        <mxCell id="Z0NAJYeGlHt2FRaliRzG-129" value="" style="rounded=0;whiteSpace=wrap;html=1;fillColor=#00FF00;" vertex="1" parent="Z0NAJYeGlHt2FRaliRzG-48">
          <mxGeometry x="168" y="85" width="10" height="10" as="geometry" />
        </mxCell>
        <mxCell id="Z0NAJYeGlHt2FRaliRzG-130" value="" style="rounded=0;whiteSpace=wrap;html=1;fillColor=#FF0000;" vertex="1" parent="Z0NAJYeGlHt2FRaliRzG-48">
          <mxGeometry x="168" y="75" width="10" height="10" as="geometry" />
        </mxCell>
        <mxCell id="Z0NAJYeGlHt2FRaliRzG-131" value="" style="rounded=0;whiteSpace=wrap;html=1;fillColor=#0000FF;" vertex="1" parent="Z0NAJYeGlHt2FRaliRzG-48">
          <mxGeometry x="168" y="95" width="10" height="10" as="geometry" />
        </mxCell>
        <mxCell id="Z0NAJYeGlHt2FRaliRzG-132" value="68" style="text;html=1;align=center;verticalAlign=middle;resizable=0;points=[];autosize=1;strokeColor=none;fillColor=none;fontSize=5;fontColor=#FF0000;" vertex="1" parent="Z0NAJYeGlHt2FRaliRzG-48">
          <mxGeometry x="211" y="69" width="30" height="20" as="geometry" />
        </mxCell>
        <mxCell id="Z0NAJYeGlHt2FRaliRzG-133" value="70" style="text;html=1;align=center;verticalAlign=middle;resizable=0;points=[];autosize=1;strokeColor=none;fillColor=none;fontSize=5;fontColor=#0000FF;" vertex="1" parent="Z0NAJYeGlHt2FRaliRzG-48">
          <mxGeometry x="211" y="89" width="30" height="20" as="geometry" />
        </mxCell>
        <mxCell id="Z0NAJYeGlHt2FRaliRzG-134" value="47" style="text;html=1;align=center;verticalAlign=middle;resizable=0;points=[];autosize=1;strokeColor=none;fillColor=none;fontSize=5;fontColor=#00FF00;" vertex="1" parent="Z0NAJYeGlHt2FRaliRzG-48">
          <mxGeometry x="211" y="79" width="30" height="20" as="geometry" />
        </mxCell>
        <mxCell id="Z0NAJYeGlHt2FRaliRzG-135" value="" style="rounded=0;whiteSpace=wrap;html=1;fillColor=#00FF00;" vertex="1" parent="Z0NAJYeGlHt2FRaliRzG-48">
          <mxGeometry x="211" y="85" width="10" height="10" as="geometry" />
        </mxCell>
        <mxCell id="Z0NAJYeGlHt2FRaliRzG-136" value="" style="rounded=0;whiteSpace=wrap;html=1;fillColor=#FF0000;" vertex="1" parent="Z0NAJYeGlHt2FRaliRzG-48">
          <mxGeometry x="211" y="75" width="10" height="10" as="geometry" />
        </mxCell>
        <mxCell id="Z0NAJYeGlHt2FRaliRzG-137" value="" style="rounded=0;whiteSpace=wrap;html=1;fillColor=#0000FF;" vertex="1" parent="Z0NAJYeGlHt2FRaliRzG-48">
          <mxGeometry x="211" y="95" width="10" height="10" as="geometry" />
        </mxCell>
        <mxCell id="Z0NAJYeGlHt2FRaliRzG-138" value="65" style="text;html=1;align=center;verticalAlign=middle;resizable=0;points=[];autosize=1;strokeColor=none;fillColor=none;fontSize=5;fontColor=#FF0000;" vertex="1" parent="Z0NAJYeGlHt2FRaliRzG-48">
          <mxGeometry x="249" y="69" width="30" height="20" as="geometry" />
        </mxCell>
        <mxCell id="Z0NAJYeGlHt2FRaliRzG-139" value="81" style="text;html=1;align=center;verticalAlign=middle;resizable=0;points=[];autosize=1;strokeColor=none;fillColor=none;fontSize=5;fontColor=#0000FF;" vertex="1" parent="Z0NAJYeGlHt2FRaliRzG-48">
          <mxGeometry x="249" y="89" width="30" height="20" as="geometry" />
        </mxCell>
        <mxCell id="Z0NAJYeGlHt2FRaliRzG-140" value="67" style="text;html=1;align=center;verticalAlign=middle;resizable=0;points=[];autosize=1;strokeColor=none;fillColor=none;fontSize=5;fontColor=#00FF00;" vertex="1" parent="Z0NAJYeGlHt2FRaliRzG-48">
          <mxGeometry x="249" y="79" width="30" height="20" as="geometry" />
        </mxCell>
        <mxCell id="Z0NAJYeGlHt2FRaliRzG-141" value="" style="rounded=0;whiteSpace=wrap;html=1;fillColor=#00FF00;" vertex="1" parent="Z0NAJYeGlHt2FRaliRzG-48">
          <mxGeometry x="249" y="85" width="10" height="10" as="geometry" />
        </mxCell>
        <mxCell id="Z0NAJYeGlHt2FRaliRzG-142" value="" style="rounded=0;whiteSpace=wrap;html=1;fillColor=#FF0000;" vertex="1" parent="Z0NAJYeGlHt2FRaliRzG-48">
          <mxGeometry x="249" y="75" width="10" height="10" as="geometry" />
        </mxCell>
        <mxCell id="Z0NAJYeGlHt2FRaliRzG-143" value="" style="rounded=0;whiteSpace=wrap;html=1;fillColor=#0000FF;" vertex="1" parent="Z0NAJYeGlHt2FRaliRzG-48">
          <mxGeometry x="249" y="95" width="10" height="10" as="geometry" />
        </mxCell>
        <mxCell id="Z0NAJYeGlHt2FRaliRzG-144" value="76" style="text;html=1;align=center;verticalAlign=middle;resizable=0;points=[];autosize=1;strokeColor=none;fillColor=none;fontSize=5;fontColor=#FF0000;" vertex="1" parent="Z0NAJYeGlHt2FRaliRzG-48">
          <mxGeometry x="289" y="69" width="30" height="20" as="geometry" />
        </mxCell>
        <mxCell id="Z0NAJYeGlHt2FRaliRzG-145" value="79" style="text;html=1;align=center;verticalAlign=middle;resizable=0;points=[];autosize=1;strokeColor=none;fillColor=none;fontSize=5;fontColor=#0000FF;" vertex="1" parent="Z0NAJYeGlHt2FRaliRzG-48">
          <mxGeometry x="289" y="89" width="30" height="20" as="geometry" />
        </mxCell>
        <mxCell id="Z0NAJYeGlHt2FRaliRzG-146" value="67" style="text;html=1;align=center;verticalAlign=middle;resizable=0;points=[];autosize=1;strokeColor=none;fillColor=none;fontSize=5;fontColor=#00FF00;" vertex="1" parent="Z0NAJYeGlHt2FRaliRzG-48">
          <mxGeometry x="289" y="79" width="30" height="20" as="geometry" />
        </mxCell>
        <mxCell id="Z0NAJYeGlHt2FRaliRzG-147" value="" style="rounded=0;whiteSpace=wrap;html=1;fillColor=#00FF00;" vertex="1" parent="Z0NAJYeGlHt2FRaliRzG-48">
          <mxGeometry x="289" y="85" width="10" height="10" as="geometry" />
        </mxCell>
        <mxCell id="Z0NAJYeGlHt2FRaliRzG-148" value="" style="rounded=0;whiteSpace=wrap;html=1;fillColor=#FF0000;" vertex="1" parent="Z0NAJYeGlHt2FRaliRzG-48">
          <mxGeometry x="289" y="75" width="10" height="10" as="geometry" />
        </mxCell>
        <mxCell id="Z0NAJYeGlHt2FRaliRzG-149" value="" style="rounded=0;whiteSpace=wrap;html=1;fillColor=#0000FF;" vertex="1" parent="Z0NAJYeGlHt2FRaliRzG-48">
          <mxGeometry x="289" y="95" width="10" height="10" as="geometry" />
        </mxCell>
        <mxCell id="Z0NAJYeGlHt2FRaliRzG-150" value="82" style="text;html=1;align=center;verticalAlign=middle;resizable=0;points=[];autosize=1;strokeColor=none;fillColor=none;fontSize=5;fontColor=#FF0000;" vertex="1" parent="Z0NAJYeGlHt2FRaliRzG-48">
          <mxGeometry x="329" y="69" width="30" height="20" as="geometry" />
        </mxCell>
        <mxCell id="Z0NAJYeGlHt2FRaliRzG-151" value="90" style="text;html=1;align=center;verticalAlign=middle;resizable=0;points=[];autosize=1;strokeColor=none;fillColor=none;fontSize=5;fontColor=#0000FF;" vertex="1" parent="Z0NAJYeGlHt2FRaliRzG-48">
          <mxGeometry x="329" y="89" width="30" height="20" as="geometry" />
        </mxCell>
        <mxCell id="Z0NAJYeGlHt2FRaliRzG-152" value="83" style="text;html=1;align=center;verticalAlign=middle;resizable=0;points=[];autosize=1;strokeColor=none;fillColor=none;fontSize=5;fontColor=#00FF00;" vertex="1" parent="Z0NAJYeGlHt2FRaliRzG-48">
          <mxGeometry x="329" y="79" width="30" height="20" as="geometry" />
        </mxCell>
        <mxCell id="Z0NAJYeGlHt2FRaliRzG-153" value="" style="rounded=0;whiteSpace=wrap;html=1;fillColor=#00FF00;" vertex="1" parent="Z0NAJYeGlHt2FRaliRzG-48">
          <mxGeometry x="329" y="85" width="10" height="10" as="geometry" />
        </mxCell>
        <mxCell id="Z0NAJYeGlHt2FRaliRzG-154" value="" style="rounded=0;whiteSpace=wrap;html=1;fillColor=#FF0000;" vertex="1" parent="Z0NAJYeGlHt2FRaliRzG-48">
          <mxGeometry x="329" y="75" width="10" height="10" as="geometry" />
        </mxCell>
        <mxCell id="Z0NAJYeGlHt2FRaliRzG-155" value="" style="rounded=0;whiteSpace=wrap;html=1;fillColor=#0000FF;" vertex="1" parent="Z0NAJYeGlHt2FRaliRzG-48">
          <mxGeometry x="329" y="95" width="10" height="10" as="geometry" />
        </mxCell>
        <mxCell id="Z0NAJYeGlHt2FRaliRzG-52" value="" style="rounded=0;whiteSpace=wrap;html=1;fillColor=#00FF00;" vertex="1" parent="1">
          <mxGeometry x="180" y="295" width="10" height="10" as="geometry" />
        </mxCell>
      </root>
    </mxGraphModel>
  </diagram>
</mxfile>
